<?xml version="1.0" encoding="utf-8" standalone="no"?>
<!DOCTYPE svg PUBLIC "-//W3C//DTD SVG 1.1//EN"
  "http://www.w3.org/Graphics/SVG/1.1/DTD/svg11.dtd">
<svg xmlns:xlink="http://www.w3.org/1999/xlink" width="371.725096pt" height="338.4pt" viewBox="0 0 371.725096 338.4" xmlns="http://www.w3.org/2000/svg" version="1.1">
 <metadata>
  <rdf:RDF xmlns:dc="http://purl.org/dc/elements/1.1/" xmlns:cc="http://creativecommons.org/ns#" xmlns:rdf="http://www.w3.org/1999/02/22-rdf-syntax-ns#">
   <cc:Work>
    <dc:type rdf:resource="http://purl.org/dc/dcmitype/StillImage"/>
    <dc:date>2024-11-25T11:03:33.081685</dc:date>
    <dc:format>image/svg+xml</dc:format>
    <dc:creator>
     <cc:Agent>
      <dc:title>Matplotlib v3.5.1, https://matplotlib.org/</dc:title>
     </cc:Agent>
    </dc:creator>
   </cc:Work>
  </rdf:RDF>
 </metadata>
 <defs>
  <style type="text/css">*{stroke-linejoin: round; stroke-linecap: butt}</style>
 </defs>
 <g id="figure_1">
  <g id="patch_1">
   <path d="M 0 338.4 
L 371.725096 338.4 
L 371.725096 0 
L 0 0 
z
" style="fill: #ffffff"/>
  </g>
  <g id="axes_1">
   <g id="patch_2">
    <path d="M 7.2 331.2 
L 364.525096 331.2 
L 364.525096 7.2 
L 7.2 7.2 
z
" style="fill: #ffffff"/>
   </g>
   <g id="matplotlib.axis_1"/>
   <g id="matplotlib.axis_2"/>
   <g id="line2d_1">
    <path d="M 223.573338 298.238368 
L 221.869327 300.099604 
L 220.025943 301.986225 
L 218.03339 303.891613 
L 215.881705 305.807752 
L 213.560914 307.725064 
L 211.061225 309.632249 
L 208.373274 311.516137 
L 205.488418 313.361563 
L 202.399097 315.151269 
L 199.099233 316.865871 
L 195.584696 318.483878 
L 191.853808 319.98182 
L 187.907873 321.334467 
L 183.751714 322.515189 
L 179.39418 323.496451 
L 174.848592 324.250467 
L 170.133077 324.749988 
L 165.270745 324.969231 
L 160.289657 324.884898 
L 155.222557 324.477242 
L 150.106327 323.731109 
L 144.981177 322.636889 
L 139.889575 321.191282 
L 134.874972 319.397814 
L 129.980398 317.267034 
L 125.24701 314.816366 
L 120.71271 312.069605 
L 116.410917 309.056086 
L 112.369584 305.809589 
L 108.610524 302.367071 
L 105.149075 298.767296 
L 101.99409 295.0495 
L 99.148237 291.252134 
L 96.608546 287.411794 
L 94.367137 283.562348 
L 92.412057 279.734312 
L 90.728167 275.954449 
L 89.298003 272.245589 
L 88.102594 268.626626 
L 87.122172 265.112675 
L 86.336785 261.71532 
L 85.726793 258.442955 
L 85.273253 255.301147 
L 84.958198 252.293029 
L 84.764826 249.419672 
L 84.677618 246.680451 
L 84.682382 244.07337 
L 84.766264 241.595359 
L 84.917708 239.242531 
L 85.126399 237.010401 
L 85.383189 234.894075 
L 85.680006 232.888398 
L 86.009767 230.988084 
L 86.366283 229.187813 
L 86.744172 227.482309 
L 87.138769 225.8664 
L 87.546051 224.335062 
L 87.96256 222.883453 
L 88.385334 221.506932 
" clip-path="url(#pf38aff729b)" style="fill: none; stroke: #000000; stroke-linecap: square"/>
   </g>
   <g id="line2d_2">
    <path d="M 164.124574 256.815979 
L 162.123305 257.347193 
L 159.990569 257.837928 
L 157.721648 258.276603 
L 155.313153 258.650136 
L 152.763459 258.943991 
L 150.073183 259.142326 
L 147.245671 259.228267 
L 144.287475 259.184303 
L 141.208758 258.992848 
L 138.02358 258.636931 
L 134.75001 258.101012 
L 131.409997 257.371868 
L 128.028988 256.439486 
L 124.635246 255.297871 
L 121.258923 253.945691 
L 117.93092 252.386664 
L 114.681646 250.629633 
L 111.539762 248.688311 
L 108.531049 246.580702 
L 105.677481 244.32827 
L 102.99658 241.954919 
L 100.501094 239.48592 
L 98.198969 236.946837 
L 96.093602 234.362584 
L 94.184297 231.75663 
L 92.466862 229.150406 
L 90.934269 226.562915 
L 89.57733 224.010528 
L 88.385334 221.506932 
" clip-path="url(#pf38aff729b)" style="fill: none; stroke: #000000; stroke-linecap: square"/>
   </g>
   <g id="line2d_3">
    <path d="M 164.124574 256.815979 
L 165.017516 258.059744 
L 165.965666 259.340367 
L 166.972341 260.657553 
L 168.040967 262.010755 
L 169.175061 263.399143 
L 170.378214 264.821581 
L 171.654069 266.276589 
L 173.006291 267.762321 
L 174.438542 269.276535 
L 175.954439 270.81657 
L 177.55752 272.379321 
L 179.251198 273.961227 
L 181.038713 275.558251 
L 182.923086 277.165882 
L 184.907059 278.779128 
L 186.993049 280.392525 
L 189.183083 282.000155 
L 191.478751 283.595667 
L 193.881146 285.17231 
L 196.390814 286.722977 
L 199.007706 288.240254 
L 201.731133 289.716477 
L 204.559735 291.143801 
L 207.491444 292.514276 
L 210.523473 293.819919 
L 213.652295 295.052808 
L 216.873652 296.20516 
L 220.182561 297.269424 
L 223.573338 298.238368 
" clip-path="url(#pf38aff729b)" style="fill: none; stroke: #000000; stroke-linecap: square"/>
   </g>
   <g id="line2d_4">
    <path d="M 217.424877 226.043034 
L 218.055539 227.438227 
L 218.690516 228.89966 
L 219.327895 230.43006 
L 219.965489 232.032118 
L 220.600822 233.708466 
L 221.231112 235.461646 
L 221.853259 237.294073 
L 222.46383 239.207998 
L 223.059052 241.205471 
L 223.634813 243.288294 
L 224.186655 245.457978 
L 224.709786 247.715699 
L 225.199092 250.062245 
L 225.649155 252.497975 
L 226.05428 255.022769 
L 226.408528 257.635987 
L 226.705759 260.336428 
L 226.939679 263.122291 
L 227.103895 265.991147 
L 227.191978 268.939917 
L 227.197533 271.96485 
L 227.114265 275.061518 
L 226.936064 278.224822 
L 226.657074 281.448994 
L 226.271781 284.727629 
L 225.775083 288.053713 
L 225.16237 291.419667 
L 224.429595 294.817398 
L 223.573338 298.238368 
" clip-path="url(#pf38aff729b)" style="fill: none; stroke: #000000; stroke-linecap: square"/>
   </g>
   <g id="line2d_5">
    <path d="M 217.424877 226.043034 
L 215.9276 228.501746 
L 214.232304 231.006792 
L 212.327954 233.536662 
L 210.20725 236.065719 
L 207.867842 238.564697 
L 205.313438 241.001632 
L 202.554632 243.343233 
L 199.609266 245.556599 
L 196.502203 247.611141 
L 193.26444 249.480464 
L 189.931623 251.143989 
L 186.542108 252.588068 
L 183.134819 253.806463 
L 179.74717 254.800174 
L 176.413288 255.576673 
L 173.162708 256.148728 
L 170.019601 256.533007 
L 167.00252 256.748654 
L 164.124574 256.815979 
" clip-path="url(#pf38aff729b)" style="fill: none; stroke: #000000; stroke-linecap: square"/>
   </g>
   <g id="line2d_6">
    <path d="M 148.195326 222.860357 
L 146.348408 223.337568 
L 144.349429 223.814617 
L 142.189004 224.284715 
L 139.858978 224.739472 
L 137.35306 225.168827 
L 134.667501 225.561076 
L 131.801772 225.903035 
L 128.759171 226.180364 
L 125.547258 226.378058 
L 122.178057 226.481078 
L 118.66796 226.475083 
L 115.037303 226.347183 
L 111.309661 226.08664 
L 107.510909 225.685426 
L 103.66816 225.138602 
L 99.80869 224.444459 
L 95.958939 223.60446 
L 92.143672 222.622983 
L 88.385334 221.506932 
" clip-path="url(#pf38aff729b)" style="fill: none; stroke: #000000; stroke-linecap: square"/>
   </g>
   <g id="line2d_7">
    <path d="M 148.195326 222.860357 
L 148.589534 224.29162 
L 149.022353 225.77999 
L 149.496588 227.324838 
L 150.014997 228.924932 
L 150.58024 230.578389 
L 151.194808 232.28264 
L 151.860953 234.034412 
L 152.580623 235.829737 
L 153.355388 237.66398 
L 154.186379 239.53189 
L 155.074242 241.427684 
L 156.01909 243.345142 
L 157.02049 245.277721 
L 158.077446 247.218683 
L 159.18842 249.161227 
L 160.351356 251.098619 
L 161.56372 253.024309 
L 162.822561 254.932049 
L 164.124574 256.815979 
" clip-path="url(#pf38aff729b)" style="fill: none; stroke: #000000; stroke-linecap: square"/>
   </g>
   <g id="line2d_8">
    <path d="M 223.573338 92.301811 
L 223.052682 90.427289 
L 222.461837 88.44552 
L 221.790778 86.348979 
L 221.027883 84.129728 
L 220.159657 81.779466 
L 219.170416 79.28962 
L 218.041906 76.651471 
L 216.752873 73.856364 
L 215.278566 70.895994 
L 213.590167 67.762827 
L 211.654167 64.450675 
L 209.43168 60.955496 
L 206.877735 57.276468 
L 203.940586 53.417428 
L 200.561124 49.388767 
L 196.672514 45.209875 
L 192.200274 40.912243 
L 187.063061 36.543274 
L 181.174586 32.170806 
L 174.447173 27.888187 
L 166.79759 23.819505 
L 158.1558 20.124192 
L 148.477112 16.999718 
L 137.757752 14.680509 
L 126.052892 13.430769 
L 113.494768 13.528866 
L 100.306713 15.241869 
L 86.807486 18.791073 
L 73.400217 24.312833 
L 60.542614 31.822834 
L 48.700142 41.194098 
L 38.290271 52.157561 
L 29.630577 64.328306 
L 22.903705 77.252487 
L 18.147075 90.463338 
L 15.267216 103.532736 
L 14.071636 116.108019 
L 14.307918 127.929933 
L 15.700747 138.833421 
L 17.981022 148.736424 
L 20.905026 157.622605 
L 24.264393 165.522828 
L 27.889043 172.498442 
L 31.645501 178.627811 
L 35.432706 183.996364 
L 39.176798 188.689808 
L 42.825863 192.789856 
L 46.345142 196.37184 
L 49.712939 199.503613 
L 52.917273 202.245298 
L 55.953224 204.649553 
L 58.820877 206.76212 
L 61.523762 208.62251 
L 64.067685 210.264721 
L 66.459879 211.717939 
L 68.708377 213.007188 
L 70.821574 214.153915 
L 72.807919 215.176509 
L 74.675704 216.090746 
L 76.432928 216.91018 
L 78.08721 217.646473 
L 79.645742 218.309676 
L 81.115267 218.908469 
L 82.502074 219.450362 
L 83.812007 219.941869 
L 85.050481 220.388652 
L 86.222504 220.795642 
L 87.332699 221.167146 
L 88.385334 221.506932 
" clip-path="url(#pf38aff729b)" style="fill: none; stroke: #000000; stroke-linecap: square"/>
   </g>
   <g id="line2d_9">
    <path d="M 223.573338 92.301811 
L 225.668165 91.763222 
L 227.880502 91.243236 
L 230.217964 90.747512 
L 232.688543 90.282656 
L 235.300581 89.856364 
L 238.062718 89.477576 
L 240.983826 89.156654 
L 244.072901 88.90557 
L 247.33893 88.738118 
L 250.790704 88.670136 
L 254.436579 88.719741 
L 258.284171 88.907565 
L 262.339967 89.256986 
L 266.608848 89.794341 
L 271.093503 90.549087 
L 275.793735 91.55391 
L 280.705632 92.844713 
L 285.820631 94.460469 
L 291.124463 96.442872 
L 296.596015 98.835732 
L 302.20616 101.684051 
L 307.91663 105.032718 
L 313.679026 108.924787 
L 319.434119 113.399301 
L 325.111601 118.488692 
L 330.630469 124.215838 
L 335.900226 130.590926 
L 340.823039 137.60836 
L 345.296936 145.244045 
L 349.219983 153.453396 
L 352.495263 162.170478 
L 355.036293 171.308583 
L 356.772399 180.762446 
L 357.653459 190.412092 
L 357.653459 200.128088 
L 356.772399 209.777734 
L 355.036293 219.231597 
L 352.495263 228.369702 
L 349.219983 237.086784 
L 345.296936 245.296135 
L 340.823039 252.93182 
L 335.900226 259.949254 
L 330.630469 266.324342 
L 325.111601 272.051488 
L 319.434119 277.140879 
L 313.679026 281.615393 
L 307.91663 285.507462 
L 302.20616 288.856129 
L 296.596015 291.704448 
L 291.124463 294.097308 
L 285.820631 296.079711 
L 280.705632 297.695467 
L 275.793735 298.98627 
L 271.093503 299.991092 
L 266.608848 300.745839 
L 262.339967 301.283194 
L 258.284171 301.632615 
L 254.436579 301.820439 
L 250.790704 301.870044 
L 247.33893 301.802062 
L 244.072901 301.63461 
L 240.983826 301.383526 
L 238.062718 301.062604 
L 235.300581 300.683816 
L 232.688543 300.257524 
L 230.217964 299.792668 
L 227.880502 299.296944 
L 225.668165 298.776958 
L 223.573338 298.238368 
" clip-path="url(#pf38aff729b)" style="fill: none; stroke: #000000; stroke-linecap: square"/>
   </g>
   <g id="line2d_10">
    <path d="M 195.983071 195.27009 
L 197.025477 196.327116 
L 198.098033 197.446133 
L 199.198794 198.629256 
L 200.325311 199.878259 
L 201.474625 201.194502 
L 202.643266 202.578859 
L 203.827273 204.031644 
L 205.022235 205.552559 
L 206.223353 207.140645 
L 207.425515 208.79426 
L 208.62339 210.511069 
L 209.811533 212.288061 
L 210.984495 214.121587 
L 212.136939 216.00742 
L 213.263745 217.940824 
L 214.360108 219.916651 
L 215.421623 221.929434 
L 216.444352 223.973493 
L 217.424877 226.043034 
" clip-path="url(#pf38aff729b)" style="fill: none; stroke: #000000; stroke-linecap: square"/>
   </g>
   <g id="line2d_11">
    <path d="M 195.983071 195.27009 
L 194.451769 196.770897 
L 192.751165 198.369009 
L 190.86567 200.061497 
L 188.782244 201.840603 
L 186.492753 203.692443 
L 183.996865 205.596035 
L 181.305025 207.523142 
L 178.44073 209.439409 
L 175.441074 211.30707 
L 172.354756 213.088956 
L 169.237487 214.752904 
L 166.145804 216.275323 
L 163.13096 217.642971 
L 160.234456 218.852677 
L 157.485971 219.909515 
L 154.903507 220.824262 
L 152.495022 221.610904 
L 150.260714 222.284614 
L 148.195326 222.860357 
" clip-path="url(#pf38aff729b)" style="fill: none; stroke: #000000; stroke-linecap: square"/>
   </g>
   <g id="line2d_12">
    <path d="M 195.983071 195.27009 
L 195.970199 196.663046 
L 195.927831 198.15534 
L 195.849626 199.75337 
L 195.728231 201.463117 
L 195.555236 203.289786 
L 195.321176 205.237362 
L 195.015621 207.30807 
L 194.62738 209.501768 
L 194.144845 211.815317 
L 193.556495 214.241981 
L 192.851564 216.770955 
L 192.020835 219.387127 
L 191.057497 222.071182 
L 189.957949 224.800097 
L 188.722437 227.548061 
L 187.355405 230.287741 
L 185.86547 232.991746 
L 184.265017 235.634114 
L 182.56946 238.191619 
L 180.796291 240.644755 
L 178.96404 242.978307 
L 177.091283 245.181522 
L 175.195806 247.247921 
L 173.293962 249.174859 
L 171.400257 250.962931 
L 169.527134 252.615318 
L 167.684926 254.13715 
L 165.881932 255.534917 
L 164.124574 256.815979 
" clip-path="url(#pf38aff729b)" style="fill: none; stroke: #000000; stroke-linecap: square"/>
   </g>
   <g id="line2d_13">
    <path d="M 217.424877 164.497146 
L 218.055539 163.101953 
L 218.690516 161.64052 
L 219.327895 160.11012 
L 219.965489 158.508062 
L 220.600822 156.831713 
L 221.231112 155.078533 
L 221.853259 153.246107 
L 222.46383 151.332182 
L 223.059052 149.334709 
L 223.634813 147.251886 
L 224.186655 145.082202 
L 224.709786 142.824481 
L 225.199092 140.477935 
L 225.649155 138.042205 
L 226.05428 135.517411 
L 226.408528 132.904193 
L 226.705759 130.203752 
L 226.939679 127.417889 
L 227.103895 124.549032 
L 227.191978 121.600263 
L 227.197533 118.57533 
L 227.114265 115.478661 
L 226.936064 112.315358 
L 226.657074 109.091186 
L 226.271781 105.81255 
L 225.775083 102.486466 
L 225.16237 99.120513 
L 224.429595 95.722782 
L 223.573338 92.301811 
" clip-path="url(#pf38aff729b)" style="fill: none; stroke: #000000; stroke-linecap: square"/>
   </g>
   <g id="line2d_14">
    <path d="M 217.424877 164.497146 
L 218.591654 165.046831 
L 219.811802 165.648091 
L 221.087354 166.306325 
L 222.420181 167.027492 
L 223.81193 167.818157 
L 225.263926 168.685523 
L 226.777071 169.637468 
L 228.351712 170.682565 
L 229.9875 171.830091 
L 231.683212 173.090012 
L 233.436561 174.472942 
L 235.243981 175.990072 
L 237.100399 177.653046 
L 238.998986 179.473788 
L 240.930924 181.464268 
L 242.885176 183.636196 
L 244.848287 186.00064 
L 246.804253 188.567566 
L 248.734454 191.345315 
L 250.617714 194.340009 
L 252.430483 197.554938 
L 254.147187 200.989935 
L 255.740747 204.6408 
L 257.183274 208.498813 
L 258.446926 212.550407 
L 259.50488 216.777024 
L 260.33239 221.15523 
L 260.90783 225.657089 
L 261.213674 230.250805 
L 261.23731 234.901612 
L 260.971633 239.572852 
L 260.415365 244.227179 
L 259.573062 248.827795 
L 258.454838 253.339632 
L 257.075813 257.730403 
L 255.455355 261.971462 
L 253.616179 266.038417 
L 251.583376 269.911501 
L 249.383439 273.575693 
L 247.04336 277.02062 
L 244.589814 280.240286 
L 242.048495 283.232661 
L 239.443586 285.999183 
L 236.797379 288.544222 
L 234.130032 290.874526 
L 231.459444 292.998697 
L 228.801229 294.926704 
L 226.168773 296.669444 
L 223.573338 298.238368 
" clip-path="url(#pf38aff729b)" style="fill: none; stroke: #000000; stroke-linecap: square"/>
   </g>
   <g id="line2d_15">
    <path d="M 217.424877 164.497146 
L 218.805545 167.023182 
L 220.127331 169.743874 
L 221.366088 172.658024 
L 222.495964 175.759137 
L 223.490437 179.034612 
L 224.323683 182.465258 
L 224.972166 186.025255 
L 225.416315 189.6827 
L 225.642068 193.400767 
L 225.642068 197.139413 
L 225.416315 200.85748 
L 224.972166 204.514925 
L 224.323683 208.074922 
L 223.490437 211.505567 
L 222.495964 214.781043 
L 221.366088 217.882155 
L 220.127331 220.796306 
L 218.805545 223.516998 
L 217.424877 226.043034 
" clip-path="url(#pf38aff729b)" style="fill: none; stroke: #000000; stroke-linecap: square"/>
   </g>
   <g id="line2d_16">
    <path d="M 217.424877 164.497146 
L 216.444352 166.566687 
L 215.421623 168.610745 
L 214.360108 170.623529 
L 213.263745 172.599356 
L 212.136939 174.53276 
L 210.984495 176.418592 
L 209.811533 178.252119 
L 208.62339 180.029111 
L 207.425515 181.745919 
L 206.223353 183.399534 
L 205.022235 184.987621 
L 203.827273 186.508536 
L 202.643266 187.961321 
L 201.474625 189.345678 
L 200.325311 190.661921 
L 199.198794 191.910924 
L 198.098033 193.094047 
L 197.025477 194.213064 
L 195.983071 195.27009 
" clip-path="url(#pf38aff729b)" style="fill: none; stroke: #000000; stroke-linecap: square"/>
   </g>
   <g id="line2d_17">
    <path d="M 155.1938 148.864425 
L 153.923647 148.838851 
L 152.565555 148.838853 
L 151.112763 148.870142 
L 149.558296 148.939491 
L 147.895098 149.054887 
L 146.116233 149.225699 
L 144.215158 149.462826 
L 142.186082 149.778829 
L 140.024434 150.188009 
L 137.727437 150.706406 
L 135.294795 151.35167 
L 132.729455 152.142757 
L 130.038421 153.099412 
L 127.233521 154.241375 
L 124.332033 155.587322 
L 121.357038 157.153547 
L 118.337336 158.95247 
L 115.306846 160.991123 
L 112.303393 163.269797 
L 109.366951 165.781095 
L 106.537473 168.509562 
L 103.852555 171.432044 
L 101.345243 174.518756 
L 99.04225 177.734951 
L 96.962803 181.042973 
L 95.118211 184.404406 
L 93.512112 187.782067 
L 92.141278 191.141655 
L 90.996787 194.452922 
L 90.065363 197.69036 
L 89.330733 200.833447 
L 88.774853 203.866527 
L 88.378954 206.778446 
L 88.124364 209.562023 
L 87.993112 212.213452 
L 87.96834 214.7317 
L 88.034547 217.117927 
L 88.177716 219.374978 
L 88.385334 221.506932 
" clip-path="url(#pf38aff729b)" style="fill: none; stroke: #000000; stroke-linecap: square"/>
   </g>
   <g id="line2d_18">
    <path d="M 155.1938 148.864425 
L 155.879842 147.47162 
L 156.628256 146.007963 
L 157.445114 144.471135 
L 158.336955 142.85919 
L 159.310777 141.17067 
L 160.37401 139.404728 
L 161.534474 137.561268 
L 162.800313 135.641087 
L 164.179907 133.646023 
L 165.681755 131.579096 
L 167.314338 129.444641 
L 169.085946 127.248422 
L 171.004495 124.997718 
L 173.077307 122.701368 
L 175.310897 120.369783 
L 177.710734 118.014896 
L 180.281019 115.650066 
L 183.024474 113.289921 
L 185.942151 110.950156 
L 189.033278 108.647277 
L 192.295147 106.398306 
L 195.723053 104.220463 
L 199.310282 102.130828 
L 203.048161 100.145996 
L 206.926156 98.281754 
L 210.932028 96.552769 
L 215.05203 94.972316 
L 219.271143 93.552048 
L 223.573338 92.301811 
" clip-path="url(#pf38aff729b)" style="fill: none; stroke: #000000; stroke-linecap: square"/>
   </g>
   <g id="line2d_19">
    <path d="M 155.1938 148.864425 
L 156.776018 148.432473 
L 158.448303 148.022834 
L 160.213119 147.641778 
L 162.072112 147.296277 
L 164.025889 146.993955 
L 166.073787 146.743001 
L 168.213651 146.552029 
L 170.441626 146.42988 
L 172.751983 146.385374 
L 175.137016 146.427003 
L 177.587015 146.562588 
L 180.090339 146.79891 
L 182.633609 147.141361 
L 185.202008 147.59361 
L 187.779693 148.157355 
L 190.350273 148.832159 
L 192.897352 149.6154 
L 195.405055 150.502345 
L 197.858542 151.486334 
L 200.244426 152.559069 
L 202.551111 153.710958 
L 204.769004 154.931516 
L 206.890613 156.209761 
L 208.91054 157.534586 
L 210.825378 158.895098 
L 212.633547 160.280888 
L 214.335071 161.682248 
L 215.931343 163.090311 
L 217.424877 164.497146 
" clip-path="url(#pf38aff729b)" style="fill: none; stroke: #000000; stroke-linecap: square"/>
   </g>
   <g id="line2d_20">
    <path d="M 155.1938 148.864425 
L 154.520028 150.284445 
L 153.812147 151.837581 
L 153.070698 153.539156 
L 152.297422 155.40573 
L 151.495723 157.454714 
L 150.671229 159.703649 
L 149.832434 162.168986 
L 148.99134 164.864211 
L 148.16395 167.797186 
L 147.370367 170.966736 
L 146.634142 174.358835 
L 145.98058 177.943216 
L 145.43388 181.671763 
L 145.013497 185.480107 
L 144.730687 189.293203 
L 144.586452 193.034068 
L 144.571715 196.633304 
L 144.669613 200.036542 
L 144.858952 203.207974 
L 145.117609 206.12993 
L 145.425073 208.799768 
L 145.763852 211.225695 
L 146.119944 213.422739 
L 146.482694 215.409506 
L 146.844328 217.205853 
L 147.199409 218.831398 
L 147.5443 220.304644 
L 147.87671 221.642548 
L 148.195326 222.860357 
" clip-path="url(#pf38aff729b)" style="fill: none; stroke: #000000; stroke-linecap: square"/>
   </g>
   <g id="line2d_21">
    <path d="M 155.1938 148.864425 
L 156.744895 149.63542 
L 158.360757 150.484235 
L 160.040022 151.417514 
L 161.779982 152.441797 
L 163.576325 153.563235 
L 165.422887 154.78723 
L 167.311446 156.117994 
L 169.231597 157.558044 
L 171.170758 159.107671 
L 173.114348 160.764431 
L 175.046167 162.522728 
L 176.948994 164.373584 
L 178.805375 166.304653 
L 180.59852 168.300554 
L 182.31323 170.343498 
L 183.936701 172.414183 
L 185.459133 174.492828 
L 186.874037 176.560227 
L 188.178252 178.598674 
L 189.371687 180.592682 
L 190.45687 182.529418 
L 191.438393 184.398878 
L 192.322322 186.193828 
L 193.115658 187.909578 
L 193.825871 189.543648 
L 194.460525 191.095396 
L 195.027007 192.565637 
L 195.532341 193.956293 
L 195.983071 195.27009 
" clip-path="url(#pf38aff729b)" style="fill: none; stroke: #000000; stroke-linecap: square"/>
   </g>
   <g id="PathCollection_1">
    <path d="M 88.385334 223.088071 
C 88.804657 223.088071 89.206862 222.921472 89.503368 222.624966 
C 89.799874 222.32846 89.966473 221.926255 89.966473 221.506932 
C 89.966473 221.087609 89.799874 220.685404 89.503368 220.388898 
C 89.206862 220.092392 88.804657 219.925794 88.385334 219.925794 
C 87.966011 219.925794 87.563806 220.092392 87.2673 220.388898 
C 86.970794 220.685404 86.804195 221.087609 86.804195 221.506932 
C 86.804195 221.926255 86.970794 222.32846 87.2673 222.624966 
C 87.563806 222.921472 87.966011 223.088071 88.385334 223.088071 
z
" clip-path="url(#pf38aff729b)"/>
   </g>
   <g id="PathCollection_2">
    <path d="M 223.573338 299.819507 
C 223.992661 299.819507 224.394866 299.652909 224.691372 299.356402 
C 224.987878 299.059896 225.154476 298.657691 225.154476 298.238368 
C 225.154476 297.819046 224.987878 297.416841 224.691372 297.120334 
C 224.394866 296.823828 223.992661 296.65723 223.573338 296.65723 
C 223.154015 296.65723 222.75181 296.823828 222.455304 297.120334 
C 222.158798 297.416841 221.992199 297.819046 221.992199 298.238368 
C 221.992199 298.657691 222.158798 299.059896 222.455304 299.356402 
C 222.75181 299.652909 223.154015 299.819507 223.573338 299.819507 
z
" clip-path="url(#pf38aff729b)"/>
   </g>
   <g id="PathCollection_3">
    <path d="M 164.124574 258.397117 
C 164.543897 258.397117 164.946102 258.230519 165.242608 257.934013 
C 165.539114 257.637506 165.705713 257.235301 165.705713 256.815979 
C 165.705713 256.396656 165.539114 255.994451 165.242608 255.697945 
C 164.946102 255.401438 164.543897 255.23484 164.124574 255.23484 
C 163.705251 255.23484 163.303046 255.401438 163.00654 255.697945 
C 162.710034 255.994451 162.543435 256.396656 162.543435 256.815979 
C 162.543435 257.235301 162.710034 257.637506 163.00654 257.934013 
C 163.303046 258.230519 163.705251 258.397117 164.124574 258.397117 
z
" clip-path="url(#pf38aff729b)"/>
   </g>
   <g id="PathCollection_4">
    <path d="M 217.424877 227.624173 
C 217.8442 227.624173 218.246405 227.457574 218.542911 227.161068 
C 218.839417 226.864562 219.006016 226.462357 219.006016 226.043034 
C 219.006016 225.623711 218.839417 225.221506 218.542911 224.925 
C 218.246405 224.628494 217.8442 224.461895 217.424877 224.461895 
C 217.005554 224.461895 216.603349 224.628494 216.306843 224.925 
C 216.010337 225.221506 215.843739 225.623711 215.843739 226.043034 
C 215.843739 226.462357 216.010337 226.864562 216.306843 227.161068 
C 216.603349 227.457574 217.005554 227.624173 217.424877 227.624173 
z
" clip-path="url(#pf38aff729b)"/>
   </g>
   <g id="PathCollection_5">
    <path d="M 148.195326 224.441496 
C 148.614649 224.441496 149.016854 224.274897 149.31336 223.978391 
C 149.609866 223.681885 149.776465 223.27968 149.776465 222.860357 
C 149.776465 222.441034 149.609866 222.038829 149.31336 221.742323 
C 149.016854 221.445817 148.614649 221.279218 148.195326 221.279218 
C 147.776003 221.279218 147.373798 221.445817 147.077292 221.742323 
C 146.780786 222.038829 146.614187 222.441034 146.614187 222.860357 
C 146.614187 223.27968 146.780786 223.681885 147.077292 223.978391 
C 147.373798 224.274897 147.776003 224.441496 148.195326 224.441496 
z
" clip-path="url(#pf38aff729b)"/>
   </g>
   <g id="PathCollection_6">
    <path d="M 223.573338 93.88295 
C 223.992661 93.88295 224.394866 93.716351 224.691372 93.419845 
C 224.987878 93.123339 225.154476 92.721134 225.154476 92.301811 
C 225.154476 91.882488 224.987878 91.480283 224.691372 91.183777 
C 224.394866 90.887271 223.992661 90.720672 223.573338 90.720672 
C 223.154015 90.720672 222.75181 90.887271 222.455304 91.183777 
C 222.158798 91.480283 221.992199 91.882488 221.992199 92.301811 
C 221.992199 92.721134 222.158798 93.123339 222.455304 93.419845 
C 222.75181 93.716351 223.154015 93.88295 223.573338 93.88295 
z
" clip-path="url(#pf38aff729b)"/>
   </g>
   <g id="PathCollection_7">
    <path d="M 195.983071 196.851229 
C 196.402393 196.851229 196.804598 196.68463 197.101105 196.388124 
C 197.397611 196.091618 197.564209 195.689413 197.564209 195.27009 
C 197.564209 194.850767 197.397611 194.448562 197.101105 194.152056 
C 196.804598 193.85555 196.402393 193.688951 195.983071 193.688951 
C 195.563748 193.688951 195.161543 193.85555 194.865037 194.152056 
C 194.56853 194.448562 194.401932 194.850767 194.401932 195.27009 
C 194.401932 195.689413 194.56853 196.091618 194.865037 196.388124 
C 195.161543 196.68463 195.563748 196.851229 195.983071 196.851229 
z
" clip-path="url(#pf38aff729b)"/>
   </g>
   <g id="PathCollection_8">
    <path d="M 217.424877 166.078284 
C 217.8442 166.078284 218.246405 165.911686 218.542911 165.61518 
C 218.839417 165.318673 219.006016 164.916468 219.006016 164.497146 
C 219.006016 164.077823 218.839417 163.675618 218.542911 163.379112 
C 218.246405 163.082606 217.8442 162.916007 217.424877 162.916007 
C 217.005554 162.916007 216.603349 163.082606 216.306843 163.379112 
C 216.010337 163.675618 215.843739 164.077823 215.843739 164.497146 
C 215.843739 164.916468 216.010337 165.318673 216.306843 165.61518 
C 216.603349 165.911686 217.005554 166.078284 217.424877 166.078284 
z
" clip-path="url(#pf38aff729b)"/>
   </g>
   <g id="PathCollection_9">
    <path d="M 155.1938 150.445563 
C 155.613123 150.445563 156.015328 150.278965 156.311834 149.982459 
C 156.60834 149.685952 156.774939 149.283747 156.774939 148.864425 
C 156.774939 148.445102 156.60834 148.042897 156.311834 147.746391 
C 156.015328 147.449884 155.613123 147.283286 155.1938 147.283286 
C 154.774477 147.283286 154.372272 147.449884 154.075766 147.746391 
C 153.77926 148.042897 153.612661 148.445102 153.612661 148.864425 
C 153.612661 149.283747 153.77926 149.685952 154.075766 149.982459 
C 154.372272 150.278965 154.774477 150.445563 155.1938 150.445563 
z
" clip-path="url(#pf38aff729b)"/>
   </g>
  </g>
 </g>
 <defs>
  <clipPath id="pf38aff729b">
   <rect x="7.2" y="7.2" width="357.325096" height="324"/>
  </clipPath>
 </defs>
</svg>
